<svg width="20" height="20" viewBox="0 0 20 20" fill="none" xmlns="http://www.w3.org/2000/svg">
<path fill-rule="evenodd" clip-rule="evenodd" d="M9.32717 2.22418C9.48034 2.65818 9.25269 3.13418 8.81869 3.28735L8.26656 3.48222C7.17421 3.86776 6.42055 4.13506 5.85884 4.40758C5.31618 4.67086 5.02939 4.90427 4.83383 5.18069C4.63826 5.4571 4.5136 5.80522 4.44594 6.40457C4.37591 7.02496 4.37468 7.82462 4.37468 8.983V11.0201C4.37468 12.1784 4.37591 12.9781 4.44594 13.5985C4.5136 14.1978 4.63826 14.546 4.83383 14.8224C5.02939 15.0988 5.31618 15.3322 5.85884 15.5955C6.42055 15.868 7.17421 16.1353 8.26656 16.5208L8.81869 16.7157C9.25269 16.8689 9.48034 17.3449 9.32717 17.7789C9.17399 18.2129 8.69799 18.4405 8.26399 18.2874L7.66625 18.0764C6.63051 17.7109 5.78755 17.4134 5.13134 17.095C4.44645 16.7627 3.8899 16.3739 3.47326 15.785C3.05663 15.1961 2.87519 14.5419 2.78979 13.7855C2.70798 13.0607 2.70799 12.1668 2.70801 11.0684L2.70801 8.93462C2.70799 7.83628 2.70798 6.94237 2.78979 6.21761C2.87519 5.46118 3.05663 4.80694 3.47326 4.21807C3.8899 3.6292 4.44645 3.24035 5.13134 2.90808C5.78755 2.58971 6.63051 2.29221 7.66624 1.92668L8.26399 1.7157C8.69799 1.56253 9.17399 1.79018 9.32717 2.22418Z" fill="white"/>
<path d="M16.4577 10.8395C16.9179 10.8395 17.291 10.4664 17.291 10.0062C17.291 9.54595 16.9179 9.17285 16.4577 9.17285L11.041 9.17285L11.041 8.67764C11.0411 8.53127 11.0412 8.35156 11.0228 8.20453L11.0225 8.20174C11.0094 8.09637 10.9495 7.61633 10.4782 7.3877C10.0058 7.15857 9.58902 7.41018 9.49885 7.46461L9.10845 7.74723C8.79526 7.99276 8.36654 8.33084 8.0407 8.64787C7.87811 8.80606 7.71041 8.98711 7.57804 9.17954C7.46037 9.35059 7.29098 9.64241 7.29098 10.0013C7.29098 10.3602 7.46037 10.652 7.57804 10.8231C7.71041 11.0155 7.87811 11.1965 8.0407 11.3547C8.36654 11.6718 8.79525 12.0098 9.10844 12.2554L9.49885 12.538C9.58902 12.5924 10.0058 12.844 10.4782 12.6149C10.9495 12.3863 11.0094 11.9062 11.0225 11.8009L11.0228 11.7981C11.0412 11.651 11.0411 11.4713 11.041 11.325L11.041 10.8395L16.4577 10.8395Z" fill="white"/>
</svg>
