<svg width="20" height="20" viewBox="0 0 20 20" fill="none" xmlns="http://www.w3.org/2000/svg">
<path d="M4.31705 12.7483C3.26907 13.3626 0.521336 14.6168 2.19489 16.1863C3.01241 16.953 3.92291 17.5013 5.06764 17.5013L11.5997 17.5013C12.7444 17.5013 13.6549 16.953 14.4724 16.1863C16.146 14.6168 13.3982 13.3626 12.3503 12.7483C9.89278 11.3079 6.77454 11.3079 4.31705 12.7483Z" stroke="#BF8322" stroke-width="1.25" stroke-linecap="round" stroke-linejoin="round"/>
<path d="M11.6667 5.83333C11.6667 7.67428 10.1743 9.16667 8.33333 9.16667C6.49238 9.16667 5 7.67428 5 5.83333C5 3.99238 6.49238 2.5 8.33333 2.5C10.1743 2.5 11.6667 3.99238 11.6667 5.83333Z" stroke="#BF8322" stroke-width="1.25"/>
<path d="M16.2503 3.33203V7.4987M18.3337 5.41536L14.167 5.41536" stroke="#BF8322" stroke-width="1.25" stroke-linecap="round" stroke-linejoin="round"/>
</svg>
