<svg width="16" height="16" viewBox="0 0 16 16" fill="none" xmlns="http://www.w3.org/2000/svg">
<g clip-path="url(#clip0_2727_15518)">
<path d="M8.551 2H8.64C9.462 2.003 13.627 2.033 14.75 2.335C15.0895 2.42717 15.3989 2.60682 15.6472 2.85601C15.8955 3.10519 16.074 3.41518 16.165 3.755C16.266 4.135 16.337 4.638 16.385 5.157L16.395 5.261L16.417 5.521L16.425 5.625C16.49 6.539 16.498 7.395 16.499 7.582V7.657C16.498 7.851 16.489 8.765 16.417 9.717L16.409 9.822L16.4 9.926C16.35 10.498 16.276 11.066 16.165 11.484C16.0743 11.824 15.8958 12.1341 15.6475 12.3833C15.3991 12.6325 15.0896 12.8121 14.75 12.904C13.59 13.216 9.181 13.238 8.57 13.239H8.428C8.119 13.239 6.841 13.233 5.501 13.187L5.331 13.181L5.244 13.177L5.073 13.17L4.902 13.163C3.792 13.114 2.735 13.035 2.248 12.903C1.90849 12.8112 1.59907 12.6318 1.35072 12.3827C1.10238 12.1337 0.923847 11.8238 0.833 11.484C0.722 11.067 0.648 10.498 0.598 9.926L0.59 9.821L0.582 9.717C0.532648 9.0394 0.5053 8.36037 0.5 7.681L0.5 7.558C0.502 7.343 0.51 6.6 0.564 5.78L0.571 5.677L0.574 5.625L0.582 5.521L0.604 5.261L0.614 5.157C0.662 4.638 0.733 4.134 0.834 3.755C0.924694 3.41505 1.10316 3.10491 1.35151 2.85568C1.59986 2.60645 1.90937 2.42689 2.249 2.335C2.736 2.205 3.793 2.125 4.903 2.075L5.073 2.068L5.245 2.062L5.331 2.059L5.502 2.052C6.45371 2.02137 7.40581 2.00437 8.358 2.001H8.551V2ZM6.9 5.21V10.028L11.057 7.62L6.9 5.21Z" fill="white"/>
</g>
<defs>
<clipPath id="clip0_2727_15518">
<rect width="16" height="16" fill="white"/>
</clipPath>
</defs>
</svg>
