<svg width="40" height="25" viewBox="0 0 40 25" fill="none" xmlns="http://www.w3.org/2000/svg">
<g clip-path="url(#clip0_2703_8293)">
<path fill-rule="evenodd" clip-rule="evenodd" d="M39.7969 2.12641C39.7969 0.954946 38.8459 0.00390625 37.6744 0.00390625H2.1225C0.95104 0.00390625 0 0.954946 0 2.12641V22.8739C0 24.0453 0.95104 24.9964 2.1225 24.9964H37.6744C38.8459 24.9964 39.7969 24.0453 39.7969 22.8739V2.12641Z" fill="#F4F4F4"/>
<path fill-rule="evenodd" clip-rule="evenodd" d="M32.8231 22.4033C32.7588 22.4049 32.7057 22.4262 32.664 22.4674C32.6224 22.5085 32.6008 22.56 32.5993 22.6218C32.6008 22.6832 32.6224 22.7346 32.664 22.7759C32.7057 22.8173 32.7588 22.8387 32.8231 22.8404C32.886 22.8388 32.9383 22.8173 32.9802 22.7759C33.022 22.7345 33.0437 22.6832 33.0452 22.6218C33.0437 22.56 33.0221 22.5085 32.9804 22.4674C32.9386 22.4262 32.8862 22.4049 32.8231 22.4033ZM32.8231 22.7922C32.774 22.791 32.7336 22.7744 32.7018 22.7423C32.6699 22.7104 32.6535 22.6702 32.6523 22.6219C32.6534 22.5733 32.6699 22.5332 32.7018 22.5014C32.7336 22.4696 32.774 22.4532 32.8231 22.4521C32.8711 22.4532 32.9109 22.4696 32.9425 22.5014C32.9741 22.5332 32.9905 22.5733 32.9917 22.6219C32.9905 22.6702 32.9742 22.7104 32.9426 22.7423C32.9109 22.7744 32.8711 22.791 32.8231 22.7922ZM32.836 22.5195H32.7423V22.7225H32.7856V22.6465H32.8055L32.867 22.7225H32.9189L32.8526 22.646C32.8733 22.6433 32.8892 22.6366 32.9004 22.6258C32.9115 22.615 32.9172 22.6011 32.9174 22.5844C32.9172 22.5643 32.9101 22.5485 32.8961 22.5371C32.8821 22.5256 32.8621 22.5198 32.836 22.5196V22.5195ZM32.8354 22.5576C32.8471 22.5576 32.8561 22.5598 32.8628 22.5643C32.8693 22.5688 32.8732 22.5764 32.8728 22.5844C32.8732 22.5925 32.8694 22.6002 32.8628 22.6048C32.8562 22.6094 32.8471 22.6117 32.8354 22.6117H32.7856V22.5576H32.8354ZM8.50069 22.701H8.03613V20.5316H8.49162V20.796C8.49162 20.796 8.89166 20.4729 9.12927 20.4769C9.59124 20.4848 9.86711 20.878 9.86711 20.878C9.86711 20.878 10.0909 20.4769 10.5958 20.4769C11.3426 20.4769 11.4521 21.1606 11.4521 21.1606V22.6918H11.0057V21.3429C11.0057 21.3429 11.0073 20.9327 10.523 20.9327C10.0221 20.9327 9.97642 21.3429 9.97642 21.3429V22.6919H9.51185V21.3337C9.51185 21.3337 9.46723 20.9054 9.04724 20.9054C8.50186 20.9054 8.49162 21.3429 8.49162 21.3429L8.50069 22.701ZM22.6288 20.4766C22.3912 20.4726 21.9912 20.7957 21.9912 20.7957V20.5319H21.5352V22.7008H22.0001L21.9912 21.3428C21.9912 21.3428 22.0014 20.9062 22.5469 20.9062C22.6482 20.9062 22.7268 20.9307 22.7891 20.9685V20.9667L22.9405 20.5444C22.8491 20.5059 22.7452 20.4786 22.6288 20.4767V20.4766ZM29.173 20.4766C28.9354 20.4726 28.5355 20.7957 28.5355 20.7957V20.5319H28.0795V22.7008H28.5443L28.5355 21.3428C28.5355 21.3428 28.5457 20.9062 29.0911 20.9062C29.1924 20.9062 29.2711 20.9307 29.3334 20.9685V20.9667L29.4848 20.5444C29.3934 20.5059 29.2895 20.4786 29.1731 20.4767L29.173 20.4766ZM12.9543 20.4677C12.259 20.4677 11.8911 21.093 11.8892 21.6154C11.8873 22.1509 12.3081 22.7685 12.9738 22.7685C13.3622 22.7685 13.6813 22.4816 13.6813 22.4816L13.6805 22.7025H14.1378V20.5311H13.6789V20.8046C13.6789 20.8046 13.3793 20.4678 12.9543 20.4678V20.4677ZM13.0433 20.9098C13.4169 20.9098 13.7201 21.2348 13.7201 21.635C13.7201 22.0353 13.4168 22.3586 13.0433 22.3586C12.6698 22.3586 12.3683 22.0353 12.3683 21.635C12.3683 21.2348 12.6698 20.9097 13.0433 20.9097L13.0433 20.9098ZM26.2902 20.4677C25.5949 20.4677 25.227 21.093 25.2251 21.6154C25.2232 22.1509 25.644 22.7685 26.3097 22.7685C26.6981 22.7685 27.0172 22.4816 27.0172 22.4816L27.0164 22.7025H27.4737V20.5311H27.0148V20.8046C27.0148 20.8046 26.7152 20.4678 26.2902 20.4678V20.4677ZM26.3792 20.9098C26.7528 20.9098 27.056 21.2348 27.056 21.635C27.056 22.0353 26.7527 22.3586 26.3792 22.3586C26.0057 22.3586 25.7042 22.0353 25.7042 21.635C25.7042 21.2348 26.0057 20.9097 26.3792 20.9097L26.3792 20.9098ZM30.6808 20.4677C29.9856 20.4677 29.6176 21.093 29.6158 21.6154C29.6139 22.1509 30.0346 22.7685 30.7004 22.7685C31.0888 22.7685 31.4079 22.4816 31.4079 22.4816L31.407 22.7025H31.8643V19.6738H31.4055V20.8046C31.4055 20.8046 31.1058 20.4677 30.6808 20.4677ZM30.7698 20.9098C31.1434 20.9098 31.4466 21.2348 31.4466 21.635C31.4466 22.0353 31.1434 22.3586 30.7698 22.3586C30.3963 22.3586 30.0949 22.0353 30.0949 21.635C30.0949 21.2348 30.3963 20.9097 30.7698 20.9097V20.9098ZM15.533 22.7738C15.0594 22.7738 14.6221 22.4822 14.6221 22.4822L14.8225 22.1723C14.8225 22.1723 15.2362 22.3637 15.533 22.3637C15.7258 22.3637 16.0484 22.3014 16.0522 22.1084C16.0564 21.9046 15.5103 21.8441 15.5103 21.8441C15.5103 21.8441 14.695 21.833 14.695 21.1605C14.695 20.7376 15.1022 20.4678 15.6241 20.4678C15.9257 20.4678 16.4895 20.7321 16.4895 20.7321L16.2618 21.0876C16.2618 21.0876 15.8265 20.9136 15.5968 20.9053C15.4029 20.8983 15.1686 20.9913 15.1686 21.1605C15.1686 21.6205 16.526 21.1247 16.526 22.0538C16.526 22.6633 15.9732 22.7738 15.533 22.7738ZM17.2804 19.9027V20.5338H16.8761V20.9899H17.2804V22.0806C17.2804 22.0806 17.2446 22.8184 18.0373 22.8184C18.2565 22.8184 18.6856 22.6563 18.6856 22.6563L18.5022 22.1822C18.5022 22.1822 18.3315 22.3279 18.1388 22.323C17.7725 22.3137 17.7826 22.0789 17.7826 22.0789V20.9898H18.5378V20.5338H17.7827V19.9028H17.2804L17.2804 19.9027ZM20.0321 20.4944C19.2866 20.4944 18.9141 21.1089 18.9171 21.6421C18.9203 22.1905 19.2563 22.8076 20.0766 22.8076C20.4277 22.8076 20.9208 22.4994 20.9208 22.4994L20.7088 22.1304C20.7088 22.1304 20.3724 22.3692 20.0766 22.3692C19.4844 22.3692 19.4461 21.79 19.4461 21.79H21.0312C21.0312 21.79 21.1495 20.4944 20.032 20.4944L20.0321 20.4944ZM19.9644 20.9204C19.9819 20.9193 20.0008 20.9204 20.0196 20.9204C20.5775 20.9204 20.5735 21.4478 20.5735 21.4478H19.4461C19.4461 21.4478 19.4194 20.9514 19.9644 20.9204ZM24.747 22.1248L24.9596 22.5502C24.9596 22.5502 24.6227 22.7694 24.2446 22.7694C23.4619 22.7694 23.0272 22.1799 23.0272 21.6221C23.0272 20.7455 23.7189 20.4878 24.1866 20.4878C24.6112 20.4878 24.9789 20.7327 24.9789 20.7327L24.7406 21.158C24.7406 21.158 24.5961 20.9325 24.1738 20.9325C23.7521 20.9325 23.5296 21.2962 23.5296 21.6414C23.5296 22.0283 23.7886 22.3569 24.1802 22.3569C24.4874 22.3569 24.747 22.1248 24.747 22.1248Z" fill="black"/>
<path fill-rule="evenodd" clip-rule="evenodd" d="M33.1378 14.789V14.4961H33.0614L32.9734 14.6975L32.8855 14.4961H32.8091V14.789H32.863V14.5681L32.9454 14.7586H33.0014L33.0838 14.5675V14.789H33.1378ZM32.6537 14.789V14.5461H32.7516V14.4966H32.5023V14.5461H32.6002V14.789H32.6537ZM33.1531 10.4341C33.1531 14.967 29.4877 18.6416 24.9662 18.6416C20.4448 18.6416 16.7793 14.967 16.7793 10.4341C16.7793 5.9012 20.4447 2.22656 24.9663 2.22656C29.4877 2.22656 33.1531 5.9012 33.1531 10.4341Z" fill="#F79F1A"/>
<path fill-rule="evenodd" clip-rule="evenodd" d="M23.0535 10.4341C23.0535 14.967 19.3881 18.6416 14.8666 18.6416C10.345 18.6416 6.67969 14.967 6.67969 10.4341C6.67969 5.9012 10.345 2.22656 14.8666 2.22656C19.3881 2.22656 23.0535 5.9012 23.0535 10.4341Z" fill="#EA001B"/>
<path fill-rule="evenodd" clip-rule="evenodd" d="M19.9166 3.97266C18.0064 5.47523 16.7803 7.81003 16.7803 10.4329C16.7803 13.0558 18.0064 15.3925 19.9167 16.895C21.8269 15.3925 23.0531 13.0558 23.0531 10.4329C23.0531 7.81003 21.8269 5.47523 19.9167 3.97266H19.9166Z" fill="#FF5F01"/>
</g>
<defs>
<clipPath id="clip0_2703_8293">
<rect width="39.7969" height="25" fill="white"/>
</clipPath>
</defs>
</svg>
