<svg width="40" height="25" viewBox="0 0 40 25" fill="none" xmlns="http://www.w3.org/2000/svg">
<g clip-path="url(#clip0_2703_8287)">
<path fill-rule="evenodd" clip-rule="evenodd" d="M39.7969 2.12641C39.7969 0.954946 38.8459 0.00390625 37.6744 0.00390625H2.1225C0.95104 0.00390625 0 0.954946 0 2.12641V22.8739C0 24.0453 0.95104 24.9964 2.1225 24.9964H37.6744C38.8459 24.9964 39.7969 24.0453 39.7969 22.8739V2.12641Z" fill="#0E4595"/>
<path fill-rule="evenodd" clip-rule="evenodd" d="M14.7621 17.7385L16.5323 7.35087H19.3637L17.5922 17.7385H14.7621ZM27.8213 7.57495C27.2603 7.36451 26.3814 7.13867 25.2837 7.13867C22.486 7.13867 20.5153 8.54748 20.4986 10.5667C20.4827 12.0593 21.9054 12.892 22.9794 13.3889C24.0815 13.8979 24.452 14.2227 24.4468 14.6774C24.4398 15.3736 23.5666 15.6917 22.7529 15.6917C21.6196 15.6917 21.0176 15.5343 20.0878 15.1464L19.7229 14.9814L19.3255 17.3068C19.9868 17.5967 21.2097 17.8479 22.4794 17.8609C25.4557 17.8609 27.3877 16.4682 27.4097 14.312C27.4204 13.1304 26.666 12.2311 25.0325 11.4897C24.0429 11.0092 23.4368 10.6885 23.4433 10.202C23.4433 9.7702 23.9562 9.30845 25.0646 9.30845C25.9906 9.29412 26.6612 9.49603 27.1838 9.70642L27.4375 9.82634L27.8214 7.5749M35.1072 7.35087H32.9194C32.2416 7.35087 31.7344 7.5359 31.4367 8.21229L27.2318 17.7319H30.205C30.205 17.7319 30.6911 16.4519 30.801 16.1709C31.126 16.1709 34.0142 16.1754 34.4272 16.1754C34.5118 16.539 34.7716 17.7319 34.7716 17.7319H37.3989L35.1072 7.35087ZM31.636 14.0583C31.8701 13.4599 32.7641 11.1546 32.7641 11.1546C32.7473 11.1823 32.9965 10.5532 33.1395 10.1632L33.3308 11.0588C33.3308 11.0588 33.873 13.5383 33.9863 14.0583H31.636ZM12.3587 7.35092L9.58673 14.4346L9.29133 12.995C8.7753 11.3355 7.1675 9.53768 5.37012 8.63758L7.9047 17.722L10.9004 17.7186L15.3579 7.35092H12.3587Z" fill="white"/>
<path fill-rule="evenodd" clip-rule="evenodd" d="M7.00013 7.35156H2.43457L2.39844 7.56769C5.95034 8.42751 8.30064 10.5054 9.2763 13.002L8.2835 8.22853C8.1121 7.57082 7.61507 7.37454 7.00013 7.35162" fill="#F2AE14"/>
</g>
<defs>
<clipPath id="clip0_2703_8287">
<rect width="39.7969" height="25" fill="white"/>
</clipPath>
</defs>
</svg>
