<svg width="20" height="20" viewBox="0 0 20 20" fill="none" xmlns="http://www.w3.org/2000/svg">
<path d="M9.80543 2.03367C9.01388 2.03367 8.24148 2.14857 7.48823 2.37838C6.73498 2.60818 6.0328 2.94012 5.38169 3.3742C4.73058 3.80827 4.15287 4.33172 3.64858 4.94453C3.14429 5.55734 2.74532 6.22761 2.45168 6.95532C2.14527 7.68304 1.95377 8.43948 1.87717 9.22464C1.80057 10.0098 1.83887 10.7854 1.99207 11.5514C2.14527 12.3302 2.407 13.0675 2.77724 13.7633C3.14748 14.4591 3.61347 15.0815 4.17522 15.6304C4.72419 16.1922 5.34658 16.6582 6.04238 17.0284C6.73818 17.3987 7.47547 17.6604 8.25425 17.8136C9.02026 17.9668 9.79585 18.0051 10.581 17.9285C11.3662 17.8519 12.1226 17.6604 12.8503 17.354C13.5781 17.0603 14.2483 16.6614 14.8611 16.1571C15.4739 15.6528 15.9974 15.0751 16.4315 14.424C16.8655 13.7729 17.1975 13.0707 17.4273 12.3174C17.6571 11.5642 17.772 10.7918 17.772 10.0002C17.772 9.47679 17.7209 8.95335 17.6188 8.4299C17.5167 7.91922 17.3666 7.42451 17.1688 6.94575C16.9709 6.46699 16.7251 6.01057 16.4315 5.57649C16.1378 5.14242 15.8059 4.74026 15.4356 4.37002C15.0654 3.99978 14.6632 3.66784 14.2292 3.3742C13.7951 3.08056 13.3387 2.8348 12.8599 2.63691C12.3812 2.43902 11.8864 2.28901 11.3758 2.18687C10.8523 2.08474 10.3289 2.03367 9.80543 2.03367ZM10.4182 16.722V11.8387H12.2567C12.3333 11.8387 12.4099 11.8227 12.4865 11.7908C12.5631 11.7589 12.6333 11.7174 12.6971 11.6663C12.7482 11.6025 12.7897 11.5323 12.8216 11.4557C12.8535 11.3791 12.8695 11.3025 12.8695 11.2259C12.8695 11.1493 12.8535 11.0727 12.8216 10.9961C12.7897 10.9195 12.7482 10.8492 12.6971 10.7854C12.6333 10.7343 12.5631 10.6928 12.4865 10.6609C12.4099 10.629 12.3333 10.613 12.2567 10.613H10.4182V8.77461C10.4182 8.60864 10.4502 8.45224 10.514 8.30542C10.5778 8.1586 10.6672 8.02774 10.7821 7.91284C10.897 7.79794 11.0279 7.70857 11.1747 7.64474C11.3215 7.5809 11.4779 7.54898 11.6439 7.54898H12.8695C12.9461 7.54898 13.0227 7.53303 13.0993 7.50111C13.1759 7.46919 13.2461 7.4277 13.31 7.37663C13.361 7.3128 13.4025 7.24258 13.4344 7.16598C13.4663 7.08937 13.4823 7.01277 13.4823 6.93617C13.4823 6.85957 13.4663 6.78297 13.4344 6.70637C13.4025 6.62977 13.361 6.55955 13.31 6.49571C13.2461 6.44464 13.1759 6.40315 13.0993 6.37123C13.0227 6.33932 12.9461 6.32336 12.8695 6.32336H11.6439C11.3247 6.32336 11.0119 6.384 10.7055 6.50529C10.3991 6.62657 10.131 6.80212 9.90118 7.03192C9.67138 7.26173 9.49583 7.52983 9.37455 7.83624C9.25326 8.14265 9.19262 8.45544 9.19262 8.77461V10.613H7.35418C7.27758 10.613 7.20098 10.629 7.12438 10.6609C7.04777 10.6928 6.97756 10.7343 6.91372 10.7854C6.86265 10.8492 6.82116 10.9195 6.78924 10.9961C6.75733 11.0727 6.74137 11.1493 6.74137 11.2259C6.74137 11.3025 6.75733 11.3791 6.78924 11.4557C6.82116 11.5323 6.86265 11.6025 6.91372 11.6663C6.97756 11.7174 7.04777 11.7589 7.12438 11.7908C7.20098 11.8227 7.27758 11.8387 7.35418 11.8387H9.19262V16.722C8.32447 16.6327 7.50419 16.3933 6.73179 16.0039C5.95939 15.6145 5.29232 15.0879 4.73058 14.424C4.15606 13.7729 3.72518 13.0388 3.43792 12.2217C3.15067 11.4046 3.02619 10.562 3.06449 9.69383C3.10279 8.82568 3.30387 7.99583 3.66773 7.20428C4.03159 6.41273 4.52631 5.71693 5.15188 5.11688C5.77746 4.52961 6.49241 4.07319 7.29673 3.74763C8.10105 3.42207 8.93728 3.2593 9.80543 3.2593C10.6736 3.2593 11.5098 3.42207 12.3141 3.74763C13.1184 4.07319 13.8334 4.52961 14.459 5.11688C15.0846 5.71693 15.5793 6.41273 15.9431 7.20428C16.307 7.99583 16.5081 8.82568 16.5464 9.69383C16.5847 10.562 16.4602 11.4046 16.1729 12.2217C15.8857 13.0388 15.4548 13.7729 14.8803 14.424C14.3185 15.0879 13.6515 15.6145 12.8791 16.0039C12.1067 16.3933 11.2864 16.6327 10.4182 16.722Z" fill="white"/>
</svg>
