<svg width="20" height="20" viewBox="0 0 20 20" fill="none" xmlns="http://www.w3.org/2000/svg">
<path d="M9.80543 6.32336C9.44796 6.32336 9.09367 6.37762 8.74258 6.48614C8.39149 6.59466 8.06274 6.74467 7.75634 6.93617C7.4627 7.14044 7.20098 7.38301 6.97117 7.66389C6.74137 7.94476 6.55625 8.25755 6.41581 8.60226C6.27537 8.9342 6.18601 9.28209 6.14771 9.64595C6.1094 10.0098 6.12855 10.3641 6.20516 10.7088C6.26899 11.0663 6.38708 11.4078 6.55944 11.7333C6.73179 12.0589 6.94564 12.3493 7.20098 12.6047C7.45632 12.86 7.74676 13.0739 8.07232 13.2462C8.39788 13.4186 8.73939 13.5367 9.09687 13.6005C9.44157 13.6771 9.79585 13.6963 10.1597 13.658C10.5236 13.6197 10.8715 13.5303 11.2034 13.3899C11.5481 13.2494 11.8609 13.0643 12.1418 12.8345C12.4227 12.6047 12.6652 12.343 12.8695 12.0493C13.061 11.7429 13.211 11.4142 13.3195 11.0631C13.428 10.712 13.4823 10.3577 13.4823 10.0002C13.4823 9.51509 13.3897 9.04591 13.2046 8.59268C13.0195 8.13945 12.7546 7.74049 12.4099 7.39578C12.0652 7.05107 11.6662 6.78616 11.213 6.60104C10.7598 6.41592 10.2906 6.32336 9.80543 6.32336ZM9.80543 12.4515C9.56286 12.4515 9.32667 12.4164 9.09687 12.3462C8.86706 12.2759 8.65002 12.1706 8.44575 12.0302C8.24148 11.9025 8.06274 11.7461 7.90954 11.561C7.75634 11.3759 7.63505 11.1684 7.54568 10.9386C7.44355 10.7088 7.38291 10.4758 7.36376 10.2396C7.3446 10.0034 7.35418 9.76405 7.39248 9.52147C7.44355 9.2789 7.52653 9.05229 7.64144 8.84164C7.75634 8.63098 7.89677 8.43629 8.06274 8.25755C8.24148 8.09158 8.43618 7.95114 8.64683 7.83624C8.85749 7.72134 9.0841 7.63835 9.32667 7.58729C9.56924 7.54898 9.80862 7.53941 10.0448 7.55856C10.281 7.57771 10.514 7.63835 10.7438 7.74049C10.9736 7.82986 11.1811 7.95114 11.3662 8.10435C11.5513 8.25755 11.7077 8.43629 11.8354 8.64056C11.9758 8.84483 12.0811 9.06186 12.1514 9.29167C12.2216 9.52147 12.2567 9.75766 12.2567 10.0002C12.2567 10.3194 12.196 10.6322 12.0748 10.9386C11.9535 11.245 11.7779 11.5131 11.5481 11.7429C11.3183 11.9727 11.0502 12.1483 10.7438 12.2696C10.4374 12.3908 10.1246 12.4515 9.80543 12.4515ZM13.4823 2.03367H6.12855C5.55404 2.03367 5.00507 2.14219 4.48162 2.35923C3.95818 2.57627 3.49857 2.88906 3.10279 3.2976C2.69425 3.69337 2.38146 4.15298 2.16442 4.67642C1.94739 5.19987 1.83887 5.74885 1.83887 6.32336V13.6771C1.83887 14.2516 1.94739 14.8006 2.16442 15.324C2.38146 15.8475 2.69425 16.3071 3.10279 16.7029C3.49857 17.1114 3.95818 17.4242 4.48162 17.6412C5.00507 17.8583 5.55404 17.9668 6.12855 17.9668H13.4823C14.0568 17.9668 14.6058 17.8583 15.1292 17.6412C15.6527 17.4242 16.1123 17.1114 16.5081 16.7029C16.9166 16.3071 17.2294 15.8475 17.4464 15.324C17.6635 14.8006 17.772 14.2516 17.772 13.6771V6.32336C17.772 5.74885 17.6635 5.19987 17.4464 4.67642C17.2294 4.15298 16.9166 3.69337 16.5081 3.2976C16.1123 2.88906 15.6527 2.57627 15.1292 2.35923C14.6058 2.14219 14.0568 2.03367 13.4823 2.03367ZM16.5464 13.6771C16.5464 14.0857 16.4698 14.4782 16.3166 14.8549C16.1634 15.2315 15.9399 15.5602 15.6463 15.8411C15.3654 16.1347 15.0367 16.3582 14.6601 16.5114C14.2834 16.6646 13.8908 16.7412 13.4823 16.7412H6.12855C5.72001 16.7412 5.32743 16.6646 4.95081 16.5114C4.57418 16.3582 4.24543 16.1347 3.96456 15.8411C3.67092 15.5602 3.4475 15.2315 3.2943 14.8549C3.14109 14.4782 3.06449 14.0857 3.06449 13.6771V6.32336C3.06449 5.91482 3.14109 5.52223 3.2943 5.14561C3.4475 4.76899 3.67092 4.44024 3.96456 4.15936C4.24543 3.86573 4.57418 3.6423 4.95081 3.4891C5.32743 3.3359 5.72001 3.2593 6.12855 3.2593H13.4823C13.8908 3.2593 14.2834 3.3359 14.6601 3.4891C15.0367 3.6423 15.3654 3.86573 15.6463 4.15936C15.9399 4.44024 16.1634 4.76899 16.3166 5.14561C16.4698 5.52223 16.5464 5.91482 16.5464 6.32336V13.6771ZM14.7079 6.01695C14.7079 6.10632 14.6952 6.19569 14.6696 6.28506C14.6441 6.37443 14.6058 6.45741 14.5547 6.53401C14.5037 6.61061 14.443 6.67764 14.3728 6.73509C14.3026 6.79254 14.2228 6.83404 14.1334 6.85957C14.0568 6.89787 13.9738 6.92021 13.8845 6.9266C13.7951 6.93298 13.7057 6.92979 13.6164 6.91702C13.527 6.90425 13.4408 6.87553 13.3578 6.83084C13.2748 6.78616 13.2014 6.7319 13.1376 6.66807C13.0738 6.60423 13.0195 6.53082 12.9748 6.44784C12.9301 6.36485 12.9014 6.27868 12.8886 6.18931C12.8759 6.09994 12.8727 6.01057 12.8791 5.9212C12.8855 5.83183 12.9078 5.74885 12.9461 5.67225C12.9716 5.58288 13.0131 5.50308 13.0706 5.43287C13.128 5.36265 13.195 5.302 13.2717 5.25094C13.3483 5.19987 13.4312 5.16157 13.5206 5.13603C13.61 5.1105 13.6993 5.09773 13.7887 5.09773C13.9164 5.09773 14.0345 5.12008 14.143 5.16476C14.2515 5.20944 14.3505 5.27647 14.4398 5.36584C14.5292 5.45521 14.5962 5.55415 14.6409 5.66267C14.6856 5.77119 14.7079 5.88928 14.7079 6.01695Z" fill="white"/>
</svg>
