<svg width="20" height="20" viewBox="0 0 20 20" fill="none" xmlns="http://www.w3.org/2000/svg">
<path d="M9.80539 5.0982C9.49898 5.0982 9.20215 5.14289 8.9149 5.23225C8.62764 5.32162 8.35634 5.44929 8.10101 5.61526C7.84567 5.78123 7.62225 5.98231 7.43074 6.2185C7.23924 6.45469 7.08604 6.71322 6.97113 6.99409C6.85623 7.27496 6.78282 7.56541 6.7509 7.86543C6.71899 8.16546 6.73494 8.46229 6.79878 8.75593C6.86261 9.04957 6.96475 9.33044 7.10519 9.59855C7.24562 9.86665 7.42436 10.1092 7.6414 10.3263C7.85843 10.5433 8.10101 10.722 8.36911 10.8625C8.63722 11.0029 8.91809 11.105 9.21173 11.1689C9.50537 11.2327 9.8022 11.2487 10.1022 11.2168C10.4022 11.1848 10.6927 11.1114 10.9736 10.9965C11.2544 10.8816 11.513 10.7284 11.7492 10.5369C11.9853 10.3454 12.1864 10.122 12.3524 9.86665C12.5184 9.61131 12.646 9.34001 12.7354 9.05276C12.8248 8.7655 12.8695 8.46867 12.8695 8.16227C12.8695 7.75372 12.7929 7.36114 12.6396 6.98452C12.4864 6.60789 12.263 6.27914 11.9694 5.99827C11.6885 5.70463 11.3598 5.48121 10.9831 5.32801C10.6065 5.1748 10.2139 5.0982 9.80539 5.0982ZM9.80539 10.0007C9.62665 10.0007 9.45111 9.97517 9.27876 9.9241C9.1064 9.87303 8.94362 9.79643 8.79042 9.6943C8.63722 9.59216 8.50316 9.47088 8.38826 9.33044C8.27336 9.19 8.17761 9.0368 8.10101 8.87083C8.03717 8.70486 7.99568 8.52931 7.97653 8.34419C7.95738 8.15907 7.96695 7.97715 8.00525 7.79841C8.04355 7.61967 8.1042 7.45051 8.18718 7.29092C8.27017 7.13134 8.37549 6.98771 8.50316 6.86004C8.63083 6.73237 8.77446 6.62704 8.93405 6.54406C9.09363 6.46107 9.2628 6.40043 9.44153 6.36213C9.62027 6.32383 9.8022 6.31425 9.98732 6.3334C10.1724 6.35255 10.348 6.39405 10.514 6.45788C10.6799 6.53448 10.8331 6.63023 10.9736 6.74514C11.114 6.86004 11.2353 6.99409 11.3374 7.14729C11.4396 7.3005 11.5162 7.46328 11.5672 7.63563C11.6183 7.80798 11.6438 7.98353 11.6438 8.16227C11.6438 8.40484 11.596 8.63783 11.5002 8.86125C11.4044 9.08468 11.2736 9.28576 11.1076 9.46449C10.9289 9.63046 10.7278 9.76132 10.5044 9.85707C10.281 9.95283 10.048 10.0007 9.80539 10.0007ZM9.80539 1.42133C8.91171 1.42133 8.05313 1.59368 7.22966 1.93839C6.4062 2.28309 5.67529 2.76824 5.03694 3.39382C4.41136 4.03216 3.92622 4.76307 3.58151 5.58654C3.23681 6.41 3.06445 7.26858 3.06445 8.16227C3.06445 8.76231 3.13467 9.36874 3.27511 9.98155C3.41554 10.6071 3.61981 11.2295 3.88792 11.8487C4.15603 12.4679 4.48797 13.0839 4.88374 13.6967C5.29228 14.3223 5.75827 14.9351 6.28172 15.5352C6.7541 16.0841 7.2552 16.6044 7.78502 17.0959C8.31485 17.5874 8.8734 18.0439 9.46068 18.4652C9.51175 18.5035 9.56601 18.5322 9.62346 18.5514C9.68091 18.5705 9.74156 18.5801 9.80539 18.5801C9.86923 18.5801 9.92987 18.5705 9.98732 18.5514C10.0448 18.5322 10.1054 18.5035 10.1692 18.4652C10.7438 18.0439 11.2959 17.5874 11.8258 17.0959C12.3556 16.6044 12.8567 16.0841 13.3291 15.5352C13.8525 14.9351 14.3185 14.3223 14.727 13.6967C15.1228 13.0839 15.4548 12.4679 15.7229 11.8487C15.991 11.2295 16.1952 10.6071 16.3357 9.98155C16.4761 9.36874 16.5463 8.76231 16.5463 8.16227C16.5463 7.26858 16.374 6.41 16.0293 5.58654C15.6846 4.76307 15.1994 4.03216 14.5738 3.39382C13.9355 2.76824 13.2046 2.28309 12.3811 1.93839C11.5577 1.59368 10.6991 1.42133 9.80539 1.42133ZM9.80539 17.2012C9.48622 16.9587 9.02022 16.5565 8.40741 15.9948C7.7946 15.433 7.18179 14.7532 6.56897 13.9553C5.95616 13.1573 5.42633 12.2668 4.97949 11.2838C4.51988 10.3007 4.29008 9.26022 4.29008 8.16227C4.29008 7.43455 4.43051 6.73237 4.71139 6.05572C4.99226 5.37908 5.38803 4.77903 5.89871 4.25559C6.42216 3.74491 7.0222 3.34913 7.69885 3.06826C8.37549 2.78739 9.07768 2.64695 9.80539 2.64695C10.5331 2.64695 11.2353 2.78739 11.9119 3.06826C12.5886 3.34913 13.1886 3.74491 13.7121 4.25559C14.2227 4.77903 14.6185 5.37908 14.8994 6.05572C15.1803 6.73237 15.3207 7.43455 15.3207 8.16227C15.3207 9.26022 15.0909 10.3007 14.6313 11.2838C14.1844 12.2668 13.6546 13.1573 13.0418 13.9553C12.429 14.7532 11.8162 15.433 11.2034 15.9948C10.5906 16.5565 10.1246 16.9587 9.80539 17.2012Z" fill="#CA9949"/>
</svg>
