<svg width="20" height="20" viewBox="0 0 20 20" fill="none" xmlns="http://www.w3.org/2000/svg">
<path d="M17.1592 3.87266H2.45168C2.37508 3.87266 2.29848 3.88861 2.22188 3.92053C2.14527 3.95245 2.07506 3.99394 2.01122 4.04501C1.96015 4.10884 1.91866 4.17906 1.88674 4.25566C1.85483 4.33226 1.83887 4.40887 1.83887 4.48547V14.9033C1.83887 15.0693 1.87078 15.2256 1.93462 15.3725C1.99845 15.5193 2.08782 15.6501 2.20272 15.765C2.31763 15.88 2.44849 15.9693 2.59531 16.0332C2.74213 16.097 2.89852 16.1289 3.06449 16.1289H16.5464C16.7123 16.1289 16.8687 16.097 17.0156 16.0332C17.1624 15.9693 17.2932 15.88 17.4081 15.765C17.523 15.6501 17.6124 15.5193 17.6762 15.3725C17.7401 15.2256 17.772 15.0693 17.772 14.9033V4.48547C17.772 4.40887 17.756 4.33226 17.7241 4.25566C17.6922 4.17906 17.6507 4.10884 17.5996 4.04501C17.5358 3.99394 17.4656 3.95245 17.389 3.92053C17.3124 3.88861 17.2358 3.87266 17.1592 3.87266ZM9.80543 10.4029L4.02201 5.09828H15.5888L9.80543 10.4029ZM7.56483 10.0008L3.06449 14.1181V5.88345L7.56483 10.0008ZM8.4649 10.8242L9.38412 11.686C9.44796 11.7371 9.51498 11.7754 9.5852 11.8009C9.65542 11.8265 9.72883 11.8392 9.80543 11.8392C9.88203 11.8392 9.95544 11.8265 10.0257 11.8009C10.0959 11.7754 10.1565 11.7371 10.2076 11.686L11.1268 10.8242L15.5697 14.9033H4.02201L8.4649 10.8242ZM12.046 10.0008L16.5464 5.88345V14.1181L12.046 10.0008Z" fill="#CA9949"/>
</svg>
