<svg width="20" height="20" viewBox="0 0 20 20" fill="none" xmlns="http://www.w3.org/2000/svg">
<path d="M17.0246 12.3361L13.4243 10.7083C13.3222 10.67 13.2201 10.6445 13.1179 10.6317C13.0158 10.619 12.9137 10.6126 12.8115 10.6126C12.7222 10.6253 12.6264 10.6477 12.5243 10.6796C12.4221 10.7115 12.3328 10.7594 12.2562 10.8232C12.2434 10.8232 12.2338 10.8264 12.2274 10.8328C12.2211 10.8392 12.2115 10.8488 12.1987 10.8615L10.322 12.451C9.7347 12.1701 9.16658 11.7552 8.6176 11.2062C8.06862 10.6573 7.64731 10.0891 7.35367 9.50186L8.94315 7.60597C8.95592 7.5932 8.9655 7.58362 8.97188 7.57724C8.97826 7.57086 8.98784 7.56128 9.00061 7.54852C9.05167 7.45915 9.09317 7.36659 9.12508 7.27083C9.157 7.17508 9.17934 7.08252 9.19211 6.99315C9.19211 6.89102 9.18573 6.78888 9.17296 6.68675C9.16019 6.58461 9.13466 6.48886 9.09636 6.39949V6.38034L7.46857 2.78007C7.41751 2.6524 7.34729 2.54069 7.25792 2.44494C7.16855 2.34918 7.06642 2.26301 6.95151 2.18641C6.83661 2.12257 6.71533 2.07789 6.58766 2.05235C6.45999 2.02682 6.33232 2.02044 6.20465 2.0332C5.6812 2.1098 5.18968 2.27258 4.73007 2.52154C4.27046 2.77049 3.8683 3.08647 3.52359 3.46948C3.17889 3.86526 2.91397 4.30891 2.72885 4.80043C2.54373 5.29196 2.45117 5.79945 2.45117 6.32289C2.45117 7.84215 2.73843 9.27205 3.31294 10.6126C3.90022 11.9531 4.69177 13.1213 5.68759 14.1171C6.68341 15.1129 7.85158 15.9045 9.19211 16.4917C10.5326 17.0663 11.9625 17.3535 13.4818 17.3535C14.0052 17.3535 14.5127 17.261 15.0043 17.0758C15.4958 16.8907 15.9394 16.6258 16.3352 16.2811C16.7182 15.9364 17.0342 15.5342 17.2831 15.0746C17.5321 14.615 17.6949 14.1235 17.7715 13.6C17.7843 13.4724 17.7779 13.3447 17.7523 13.217C17.7268 13.0894 17.6821 12.9681 17.6183 12.8532C17.5417 12.7383 17.4555 12.6361 17.3598 12.5468C17.264 12.4574 17.1523 12.3872 17.0246 12.3361ZM13.4818 16.1279C12.8307 16.1279 12.1923 16.0641 11.5668 15.9364C10.9284 15.8087 10.3156 15.6236 9.72832 15.381C9.14104 15.1385 8.5793 14.8384 8.04309 14.481C7.50688 14.1235 7.00897 13.7149 6.54936 13.2553C6.08975 12.7957 5.6812 12.2978 5.32373 11.7616C4.96626 11.2254 4.66623 10.6636 4.42366 10.0764C4.18109 9.48909 3.99597 8.87628 3.8683 8.23793C3.74063 7.61235 3.6768 6.974 3.6768 6.32289C3.6768 5.95265 3.74063 5.59198 3.8683 5.24089C3.99597 4.8898 4.18747 4.57382 4.44281 4.29295C4.68538 4.01208 4.96945 3.78227 5.29501 3.60353C5.62056 3.4248 5.96846 3.3099 6.3387 3.25883L7.94733 6.8591L6.377 8.75499C6.36424 8.76776 6.35466 8.78052 6.34828 8.79329C6.34189 8.80606 6.3387 8.81882 6.3387 8.83159C6.27487 8.90819 6.22699 8.99756 6.19507 9.0997C6.16316 9.20183 6.14081 9.30397 6.12805 9.4061C6.12805 9.52101 6.13762 9.62952 6.15677 9.73166C6.17592 9.8338 6.21103 9.92955 6.2621 10.0189C6.60681 10.7339 7.10472 11.4169 7.75583 12.068C8.40694 12.7191 9.08997 13.217 9.80492 13.5617C9.90706 13.6 10.0092 13.6288 10.1113 13.6479C10.2135 13.6671 10.3156 13.6766 10.4177 13.6766C10.5326 13.6639 10.638 13.6415 10.7337 13.6096C10.8295 13.5777 10.922 13.5298 11.0114 13.466C11.0242 13.466 11.0369 13.4628 11.0497 13.4564C11.0625 13.45 11.0688 13.4405 11.0688 13.4277L12.9456 11.8382L16.5459 13.4468C16.4948 13.8171 16.3799 14.1682 16.2012 14.5001C16.0224 14.832 15.7926 15.1193 15.5117 15.3619C15.2309 15.6172 14.9149 15.8087 14.5638 15.9364C14.2127 16.0641 13.852 16.1279 13.4818 16.1279Z" fill="#CA9949"/>
</svg>
