<svg width="20" height="20" viewBox="0 0 20 20" fill="none" xmlns="http://www.w3.org/2000/svg">
<path d="M14.5922 9.67468C14.4518 9.57254 14.3114 9.47679 14.1709 9.38742C14.0305 9.29805 13.8837 9.22145 13.7305 9.15762C13.5773 8.00859 13.2038 7.21066 12.6102 6.76382C12.0165 6.31698 11.5473 6.0361 11.2026 5.9212C10.4366 5.6914 9.6674 5.70097 8.89501 5.94993C8.12261 6.19888 7.53852 6.617 7.14274 7.20428C7.12998 7.24258 7.11402 7.28088 7.09487 7.31918C7.07572 7.35748 7.06614 7.39578 7.06614 7.43408C7.05338 7.47238 7.04699 7.51068 7.04699 7.54898C7.04699 7.58729 7.05338 7.62559 7.06614 7.66389C7.07891 7.75325 7.10764 7.82986 7.15232 7.89369C7.197 7.95753 7.25126 8.01498 7.3151 8.06604C7.37893 8.10435 7.45234 8.13307 7.53533 8.15222C7.61831 8.17137 7.69811 8.16818 7.77471 8.14265C7.81301 8.14265 7.85131 8.13307 7.88961 8.11392C7.92791 8.09477 7.96621 8.07881 8.00451 8.06604C8.03005 8.04051 8.05877 8.01179 8.09069 7.97987C8.12261 7.94795 8.15133 7.91922 8.17687 7.89369C8.41944 7.52345 8.79925 7.26173 9.31631 7.10853C9.83337 6.95532 10.3409 6.95532 10.8388 7.10853C11.2218 7.22343 11.5441 7.41812 11.8059 7.69261C12.0676 7.9671 12.2623 8.30862 12.39 8.71716C12.1984 8.67886 12.0038 8.65013 11.8059 8.63098C11.608 8.61183 11.4133 8.60226 11.2218 8.60226C10.6856 8.60226 10.1749 8.66928 9.68975 8.80333C9.2046 8.93739 8.77691 9.1257 8.40667 9.36827C7.97259 9.67468 7.63746 10.0385 7.40127 10.4598C7.16509 10.8812 7.04699 11.3408 7.04699 11.8387C7.04699 12.6302 7.31829 13.2813 7.86088 13.792C8.40348 14.3027 9.09608 14.558 9.9387 14.558C10.1813 14.558 10.4238 14.5325 10.6664 14.4814C10.909 14.4304 11.1388 14.3538 11.3558 14.2516C11.5856 14.1623 11.8027 14.0474 12.0069 13.9069C12.2112 13.7665 12.3963 13.6069 12.5623 13.4282C12.8176 13.1728 13.0666 12.8153 13.3092 12.3557C13.5517 11.8961 13.7049 11.3025 13.7688 10.5747C13.7815 10.5875 13.7943 10.6003 13.8071 10.613C13.8198 10.6258 13.8326 10.6386 13.8454 10.6513C14.2284 10.945 14.5188 11.2929 14.7167 11.695C14.9146 12.0972 15.0136 12.5536 15.0136 13.0643C15.0136 13.4345 14.9178 13.8367 14.7263 14.2708C14.522 14.6921 14.2188 15.0879 13.8167 15.4581C13.4145 15.8283 12.907 16.1347 12.2942 16.3773C11.6686 16.6199 10.9409 16.7412 10.1111 16.7412C9.0897 16.7412 8.21517 16.5752 7.48745 16.2433C6.75974 15.9113 6.17246 15.4006 5.72562 14.7112C5.34261 14.1623 5.05854 13.492 4.87342 12.7004C4.6883 11.9089 4.59574 11.0088 4.59574 10.0002C4.59574 8.99165 4.6883 8.09158 4.87342 7.30003C5.05854 6.50848 5.34261 5.83822 5.72562 5.28924C6.17246 4.59982 6.75974 4.08915 7.48745 3.75721C8.21517 3.42527 9.0897 3.2593 10.1111 3.2593C11.375 3.2593 12.4123 3.51464 13.223 4.02531C14.0337 4.53599 14.6433 5.31477 15.0519 6.36166C15.0646 6.39996 15.0838 6.43507 15.1093 6.46699C15.1348 6.4989 15.1604 6.53401 15.1859 6.57231C15.2114 6.59785 15.2402 6.62338 15.2721 6.64892C15.304 6.67445 15.3391 6.6936 15.3774 6.70637C15.4157 6.71913 15.454 6.7319 15.4923 6.74467C15.5306 6.75743 15.5689 6.76382 15.6072 6.76382C15.6455 6.76382 15.687 6.76063 15.7317 6.75424C15.7764 6.74786 15.8179 6.73828 15.8562 6.72552C15.8945 6.71275 15.9296 6.6936 15.9615 6.66807C15.9934 6.64253 16.0221 6.617 16.0477 6.59146C16.0732 6.56593 16.0987 6.5372 16.1243 6.50529C16.1498 6.47337 16.169 6.43826 16.1817 6.39996C16.2073 6.36166 16.2232 6.32336 16.2296 6.28506C16.236 6.24676 16.2392 6.20207 16.2392 6.15101C16.2392 6.1127 16.236 6.0744 16.2296 6.0361C16.2232 5.9978 16.2136 5.9595 16.2009 5.9212C15.9583 5.28285 15.6455 4.72111 15.2625 4.23597C14.8795 3.75082 14.4295 3.34547 13.9124 3.01992C13.3953 2.69436 12.824 2.4486 12.1984 2.28263C11.5601 2.11666 10.8643 2.03367 10.1111 2.03367C8.88543 2.03367 7.81939 2.24752 6.91294 2.67521C6.00649 3.1029 5.26601 3.74444 4.69149 4.59982C4.25742 5.2637 3.92867 6.04887 3.70525 6.95532C3.48183 7.86177 3.37012 8.87674 3.37012 10.0002C3.37012 11.1237 3.48183 12.1387 3.70525 13.0451C3.92867 13.9516 4.25742 14.7368 4.69149 15.4006C5.26601 16.256 6.00649 16.8976 6.91294 17.3253C7.81939 17.753 8.88543 17.9668 10.1111 17.9668C11.2601 17.9668 12.2048 17.7881 12.9453 17.4306C13.6858 17.0731 14.2603 16.7156 14.6688 16.3582C15.154 15.8986 15.537 15.3783 15.8179 14.7974C16.0987 14.2165 16.2392 13.6388 16.2392 13.0643C16.2392 12.3621 16.0987 11.7238 15.8179 11.1493C15.537 10.5747 15.1285 10.0832 14.5922 9.67468ZM11.6814 12.5855C11.5665 12.7004 11.442 12.8058 11.308 12.9015C11.1739 12.9973 11.0303 13.0771 10.8771 13.1409C10.7366 13.2047 10.5866 13.2526 10.427 13.2845C10.2674 13.3164 10.1047 13.3324 9.9387 13.3324C9.51739 13.3324 9.13439 13.2143 8.78968 12.9781C8.44497 12.7419 8.27262 12.3621 8.27262 11.8387C8.27262 11.3535 8.50881 10.8971 8.98118 10.4694C9.45356 10.0417 10.2004 9.82788 11.2218 9.82788C11.4388 9.82788 11.6622 9.84384 11.892 9.87576C12.1218 9.90767 12.3453 9.95555 12.5623 10.0194C12.5623 10.5556 12.4857 11.0407 12.3325 11.4748C12.1793 11.9089 11.9623 12.2727 11.6814 12.5664V12.5855Z" fill="white"/>
</svg>
