<svg width="20" height="20" viewBox="0 0 20 20" fill="none" xmlns="http://www.w3.org/2000/svg">
<path d="M17.1504 6.01367C16.6655 6.01367 16.1965 5.92116 15.7436 5.73613C15.2906 5.55111 14.8918 5.28633 14.5473 4.9418C14.2027 4.59727 13.938 4.1985 13.7529 3.74551C13.5679 3.29251 13.4754 2.82357 13.4754 2.33867C13.4754 2.26211 13.4594 2.18555 13.4275 2.10898C13.3956 2.03242 13.3542 1.96224 13.3031 1.89844C13.2393 1.84739 13.1691 1.80592 13.0926 1.77402C13.016 1.74212 12.9395 1.72617 12.8629 1.72617H9.80039C9.72383 1.72617 9.64727 1.74212 9.5707 1.77402C9.49414 1.80592 9.42396 1.84739 9.36016 1.89844C9.30911 1.96224 9.26764 2.03242 9.23574 2.10898C9.20384 2.18555 9.18789 2.26211 9.18789 2.33867V12.4449C9.18789 12.5853 9.16875 12.7193 9.13047 12.8469C9.09219 12.9745 9.04115 13.1021 8.97734 13.2297C8.90078 13.3445 8.81465 13.4498 8.71895 13.5455C8.62324 13.6412 8.51797 13.721 8.40313 13.7848C8.27552 13.8486 8.14473 13.8964 8.01074 13.9283C7.87676 13.9602 7.74596 13.9762 7.61836 13.9762C7.47799 13.9762 7.34082 13.9538 7.20684 13.9092C7.07285 13.8645 6.94844 13.8103 6.83359 13.7465C6.71875 13.6699 6.61667 13.5806 6.52734 13.4785C6.43802 13.3764 6.36146 13.2616 6.29766 13.134C6.23385 13.0191 6.186 12.8947 6.1541 12.7607C6.1222 12.6268 6.11263 12.4896 6.12539 12.3492C6.13815 12.2089 6.16686 12.0749 6.21152 11.9473C6.25619 11.8197 6.3168 11.6984 6.39336 11.5836C6.46992 11.4688 6.55925 11.3667 6.66133 11.2773C6.76341 11.188 6.87826 11.1178 7.00586 11.0668C7.0569 11.0413 7.10475 11.0094 7.14941 10.9711C7.19408 10.9328 7.22917 10.8882 7.25469 10.8371C7.28021 10.7861 7.30254 10.7318 7.32168 10.6744C7.34082 10.617 7.35039 10.5628 7.35039 10.5117V7.23867C7.35039 7.18763 7.34401 7.14297 7.33125 7.10469C7.31849 7.06641 7.30573 7.02174 7.29297 6.9707C7.28021 6.93242 7.25788 6.89733 7.22598 6.86543C7.19408 6.83353 7.16536 6.79844 7.13984 6.76016C7.10156 6.73464 7.06328 6.7123 7.025 6.69316C6.98672 6.67402 6.94206 6.65807 6.89102 6.64531C6.85273 6.63255 6.81126 6.62617 6.7666 6.62617C6.72194 6.62617 6.67409 6.62617 6.62305 6.62617C5.94674 6.75378 5.3151 6.99622 4.72813 7.35352C4.14115 7.71081 3.63392 8.14785 3.20645 8.66465C2.77897 9.18145 2.44401 9.76523 2.20156 10.416C1.95911 11.0668 1.83789 11.7431 1.83789 12.4449C1.83789 13.2105 1.98464 13.9507 2.27813 14.6652C2.57161 15.3798 2.99271 16.0115 3.54141 16.5602C4.0901 17.1089 4.72174 17.5299 5.43633 17.8234C6.15091 18.1169 6.89102 18.2637 7.65664 18.2637C8.42227 18.2637 9.16237 18.1169 9.87695 17.8234C10.5915 17.5299 11.2232 17.1089 11.7719 16.5602C12.3206 16.0115 12.7417 15.3798 13.0352 14.6652C13.3286 13.9507 13.4754 13.2105 13.4754 12.4449V9.40156C14.0368 9.69505 14.6302 9.91836 15.2555 10.0715C15.8807 10.2246 16.5124 10.3012 17.1504 10.3012C17.227 10.3012 17.3035 10.2852 17.3801 10.2533C17.4566 10.2214 17.5268 10.1799 17.5906 10.1289C17.6417 10.0651 17.6831 9.99492 17.715 9.91836C17.7469 9.8418 17.7629 9.76523 17.7629 9.68867V6.62617C17.7629 6.54961 17.7469 6.47305 17.715 6.39648C17.6831 6.31992 17.6417 6.24974 17.5906 6.18594C17.5268 6.1349 17.4566 6.09342 17.3801 6.06152C17.3035 6.02962 17.227 6.01367 17.1504 6.01367ZM16.5379 9.05703C15.9382 8.99323 15.3576 8.85924 14.7961 8.65508C14.2346 8.45091 13.7115 8.17018 13.2266 7.81289C13.1755 7.77461 13.1245 7.7459 13.0734 7.72676C13.0224 7.70762 12.965 7.69805 12.9012 7.69805C12.8501 7.69805 12.7959 7.70124 12.7385 7.70762C12.6811 7.714 12.6268 7.72995 12.5758 7.75547C12.5247 7.78099 12.4801 7.81608 12.4418 7.86074C12.4035 7.9054 12.3716 7.94687 12.3461 7.98516C12.3078 8.0362 12.2823 8.09043 12.2695 8.14785C12.2568 8.20527 12.2504 8.25951 12.2504 8.31055V12.4449C12.2504 13.0574 12.1324 13.6444 11.8963 14.2059C11.6602 14.7673 11.3316 15.265 10.9105 15.6988C10.4767 16.1199 9.97904 16.4485 9.41758 16.6846C8.85612 16.9206 8.26914 17.0387 7.65664 17.0387C7.04414 17.0387 6.45716 16.9206 5.8957 16.6846C5.33424 16.4485 4.83659 16.1199 4.40273 15.6988C3.98164 15.265 3.65306 14.7673 3.41699 14.2059C3.18092 13.6444 3.06289 13.0574 3.06289 12.4449C3.06289 11.4496 3.35 10.5468 3.92422 9.73652C4.49844 8.92624 5.23216 8.36159 6.12539 8.04258V10.148C5.92122 10.2884 5.74258 10.4479 5.58945 10.6266C5.43633 10.8052 5.30234 10.9966 5.1875 11.2008C5.08542 11.4177 5.00885 11.641 4.95781 11.8707C4.90677 12.1004 4.88763 12.3365 4.90039 12.5789C4.91315 12.8214 4.95462 13.0542 5.0248 13.2775C5.09499 13.5008 5.19388 13.7146 5.32148 13.9187C5.44909 14.1229 5.60221 14.3048 5.78086 14.4643C5.95951 14.6238 6.15091 14.7609 6.35508 14.8758C6.57201 14.9906 6.79531 15.0736 7.025 15.1246C7.25469 15.1757 7.49076 15.2012 7.7332 15.2012C7.96289 15.2012 8.19258 15.1661 8.42227 15.0959C8.65195 15.0257 8.86888 14.9332 9.07305 14.8184C9.27721 14.6908 9.46224 14.5408 9.62813 14.3686C9.79401 14.1963 9.93437 14.0081 10.0492 13.8039C10.1641 13.5997 10.2534 13.3828 10.3172 13.1531C10.381 12.9234 10.4129 12.6874 10.4129 12.4449V2.95117H12.2887C12.3525 3.48711 12.5056 4.00072 12.748 4.49199C12.9905 4.98327 13.3031 5.42031 13.6859 5.80312C14.0688 6.18594 14.5058 6.49857 14.9971 6.74102C15.4883 6.98346 16.002 7.13659 16.5379 7.20039V9.05703Z" fill="white"/>
</svg>
