<svg width="20" height="20" viewBox="0 0 20 20" fill="none" xmlns="http://www.w3.org/2000/svg">
<path d="M16.4506 16.4151L11.663 8.86989L16.3931 3.66099C16.4442 3.60992 16.4825 3.54608 16.508 3.46948C16.5336 3.39288 16.5463 3.3099 16.5463 3.22053C16.5336 3.14393 16.5112 3.07052 16.4793 3.0003C16.4474 2.93008 16.3995 2.86305 16.3357 2.79922C16.2846 2.74815 16.2208 2.70985 16.1442 2.68432C16.0676 2.65878 15.991 2.64602 15.9144 2.64602C15.825 2.64602 15.7452 2.66517 15.675 2.70347C15.6048 2.74177 15.5377 2.78645 15.4739 2.83752L10.9736 7.79747L7.8712 2.93327C7.84567 2.8822 7.81375 2.84071 7.77545 2.80879C7.73715 2.77688 7.69885 2.74815 7.66055 2.72262C7.60948 2.69708 7.55841 2.67793 7.50734 2.66517C7.45628 2.6524 7.40521 2.64602 7.35414 2.64602H3.67727C3.6262 2.64602 3.57513 2.6524 3.52406 2.66517C3.47299 2.67793 3.42193 2.69708 3.37086 2.72262C3.31979 2.74815 3.27511 2.78326 3.23681 2.82794C3.19851 2.87263 3.16659 2.91412 3.14105 2.95242C3.11552 3.00349 3.09637 3.05775 3.0836 3.1152C3.07084 3.17265 3.06445 3.22691 3.06445 3.27798C3.06445 3.32905 3.07403 3.38011 3.09318 3.43118C3.11233 3.48225 3.13467 3.53332 3.16021 3.58438L7.96695 11.1105L3.21766 16.3194C3.19212 16.3577 3.16978 16.3928 3.15063 16.4247C3.13148 16.4566 3.11552 16.4917 3.10275 16.53C3.08999 16.5683 3.08041 16.6067 3.07403 16.645C3.06764 16.6833 3.06445 16.7279 3.06445 16.779C3.06445 16.8173 3.07084 16.8556 3.0836 16.8939C3.09637 16.9322 3.10914 16.9705 3.1219 17.0088C3.13467 17.0471 3.15382 17.0822 3.17936 17.1141C3.20489 17.1461 3.23042 17.1748 3.25596 17.2003C3.29426 17.2258 3.32937 17.2482 3.36128 17.2673C3.3932 17.2865 3.42831 17.3024 3.46661 17.3152C3.50491 17.328 3.54321 17.3376 3.58151 17.3439C3.61981 17.3503 3.6645 17.3535 3.71557 17.3535C3.75387 17.3535 3.79217 17.3471 3.83047 17.3344C3.86877 17.3216 3.90707 17.3088 3.94537 17.2961C3.98367 17.2833 4.01878 17.2641 4.0507 17.2386C4.08262 17.2131 4.11134 17.1812 4.13688 17.1429L8.63722 12.2021L11.7396 17.0663C11.7651 17.1046 11.797 17.1429 11.8353 17.1812C11.8736 17.2195 11.9183 17.2514 11.9694 17.2769C12.0077 17.3024 12.0524 17.3216 12.1034 17.3344C12.1545 17.3471 12.2056 17.3535 12.2566 17.3535H15.9335C15.9846 17.3535 16.0388 17.3439 16.0963 17.3248C16.1537 17.3056 16.2016 17.2833 16.2399 17.2578C16.291 17.2322 16.3357 17.2003 16.374 17.162C16.4123 17.1237 16.4442 17.079 16.4697 17.028C16.4953 16.9769 16.5144 16.9258 16.5272 16.8748C16.5399 16.8237 16.5463 16.7726 16.5463 16.7216C16.5463 16.6577 16.5368 16.6003 16.5176 16.5492C16.4985 16.4981 16.4761 16.4534 16.4506 16.4151ZM12.6013 16.1279L4.78799 3.87164H7.00943L14.8228 16.1279H12.6013Z" fill="white"/>
</svg>
